<svg xmlns="http://www.w3.org/2000/svg" width="36" height="35"><style></style><g id="Services"><g id="1"><g id="Group 1"><path id="Antenna 1" d="M14 34c-2.94 0-5.7-1.14-7.78-3.22-4.29-4.29-4.29-11.27 0-15.56l3.53-3.53 15.56 15.55-3.53 3.54A10.922 10.922 0 0114 34zM9.75 14.51l-2.12 2.13c-3.51 3.51-3.51 9.22 0 12.72C9.33 31.06 11.59 32 14 32c2.4 0 4.66-.94 6.36-2.64l2.12-2.12L9.75 14.51zm-.7 13.44a7.007 7.007 0 010-9.9l1.41 1.41a5.016 5.016 0 000 7.08l-1.41 1.41zm11.78-7.12l-1.42-1.42c.38-.37.59-.88.59-1.41 0-.54-.21-1.04-.59-1.41-.75-.76-2.07-.76-2.83 0l-1.41-1.42c1.51-1.51 4.15-1.51 5.66 0a4.004 4.004 0 010 5.66zm6.13-2.92c0-4.96-4.01-9-8.97-9v-2c6.06 0 10.97 4.93 10.97 11h-2zm6.04.04C32.99 10.26 26.74 4 19.05 4V2C27.84 2 34.99 9.16 35 17.95h-2z" fill="#ef4035"/></g></g></g></svg>