<svg xmlns="http://www.w3.org/2000/svg" width="24" height="35"><style></style><g id="Services"><g id="1"><g id="Group 2"><path id="Bulb" d="M16.91 23.45l-1.79-.9 2.54-4.9c3.12-3.12 3.12-8.19 0-11.31-3.12-3.12-8.2-3.12-11.32 0-3.12 3.12-3.12 8.19 0 11.31l.12.12 2.4 4.78-1.79.9-2.26-4.5c-3.78-3.91-3.74-10.16.12-14.02 3.9-3.9 10.24-3.9 14.14 0 3.86 3.86 3.9 10.11.12 14.02l-2.28 4.5zm-8.79 3.51l-.24-1.99 8-.97.24 1.99-8 .97zm0 3l-.24-1.99 8-.97.24 1.99-8 .97zM11.98 34c-1.66 0-3-1.35-3-3h2c0 .55.45 1 1 1s1-.45 1-1h2c0 1.65-1.35 3-3 3zM8 12H6c0-3.31 2.69-6 6-6v2c-2.21 0-4 1.79-4 4z" fill="#ef4035"/></g></g></g></svg>