<svg xmlns="http://www.w3.org/2000/svg" width="30" height="35"><style></style><g id="Services"><g id="1"><g id="Group 1 copy"><path id="Chemical Glass" d="M20.96 4H8.97V2h11.99v2zm4.36 30H4.63l-.29-.29C2.83 32.2 2 30.17 1.99 28c0-2.17.82-4.2 2.33-5.71l6.65-6.7V6h1.99v10.41l-7.23 7.3A5.999 5.999 0 003.99 28c0 1.5.53 2.9 1.49 4h18.99c2.06-2.36 1.97-6.07-.25-8.29l-7.23-7.3V6h1.99v9.59l6.65 6.7c3.14 3.15 3.13 8.27-.02 11.42l-.29.29zM6.2 29.32c-.14-.42-.21-.87-.21-1.33-.01-1.1.41-2.12 1.16-2.87l6.99-7 1.42 1.41-7 7c-.37.38-.58.9-.58 1.46.01.24.04.48.11.69l-1.89.64z" fill="#ef4035"/></g></g></g></svg>