<svg xmlns="http://www.w3.org/2000/svg" width="35" height="36"><style></style><g id="Services"><g id="2"><g id="Group 1 copy 4"><path id="Tools" d="M5.01 8.76c-.8 0-1.56-.32-2.12-.89L1.48 6.45l4.23-4.28L7.13 3.6c.56.57.88 1.33.88 2.14 0 .8-.32 1.56-.88 2.13-.57.57-1.32.89-2.12.89zM4.3 6.45c.19.19.44.29.71.29.26 0 .52-.1.7-.29a1 1 0 000-1.43L4.3 6.45zm7.75 7.58L5.73 7.88l1.38-1.45 6.33 6.15-1.39 1.45zm15.24 15.65l-5.73-6.05 1.41-1.42 5.73 6.05-1.41 1.42zm.71 4.33c-1.28 0-2.55-.49-3.53-1.47l-6.34-6.68 1.41-1.42 6.35 6.67c1.16 1.18 3.06 1.17 4.23 0a3.051 3.051 0 00-.01-4.29l-6.33-6.66 1.41-1.42 6.34 6.66c1.95 1.97 1.95 5.17 0 7.13-.97.98-2.25 1.48-3.53 1.48zm-3.49-16.7c-1.87 0-3.63-.73-4.95-2.07a7.035 7.035 0 01-2.05-4.99c0-1.88.73-3.65 2.05-4.98l1.83-1.85 1.41 1.43-1.83 1.84a5.04 5.04 0 00-1.46 3.56c0 1.35.52 2.61 1.46 3.57.95.95 2.2 1.47 3.54 1.47 1.33 0 2.58-.52 3.53-1.47l1.82-1.85 1.42 1.43-1.83 1.84a6.89 6.89 0 01-4.94 2.07zm6.77-3.91l-2.12-2.14-.71.71c-.75.77-1.76 1.19-2.82 1.19h-.01a3.959 3.959 0 01-2.82-1.19 4.033 4.033 0 01-1.17-2.85c0-1.07.41-2.09 1.17-2.85l.71-.71-2.12-2.14L22.8 2l3.53 3.56-2.12 2.14c-.38.38-.58.89-.58 1.42 0 .54.2 1.05.58 1.43.38.38.88.59 1.41.59h.01c.53 0 1.03-.21 1.41-.59l2.12-2.14 3.53 3.56-1.41 1.43zM7.04 29.89h-2v-2.02h2v2.02zm11.09-9.82l-3.97-3.95 1.41-1.44 3.96 3.96-1.4 1.43zM6.01 33.95c-1.34 0-2.59-.52-3.53-1.47a5.014 5.014 0 01-1.47-3.57c0-1.34.52-2.61 1.47-3.56l.11-.1 10.34-7.58 1.18 1.63-10.27 7.53c-.54.56-.83 1.3-.83 2.08 0 .81.31 1.57.88 2.14 1.11 1.13 3.05 1.15 4.18.05l7.46-10.35 1.62 1.18-7.61 10.55c-.94.95-2.2 1.47-3.53 1.47z" fill="#ef4035"/></g></g></g></svg>