<svg xmlns="http://www.w3.org/2000/svg" viewBox="0 0 36 35" width="36" height="35">
	<style>
		tspan { white-space:pre }
		.shp0 { fill: #ef4035 } 
	</style>
	<g id="Services">
		<g id="1">
			<g id="Group 1">
				<path id="Antenna 1" class="shp0" d="M14 34C11.06 34 8.3 32.86 6.22 30.78C1.93 26.49 1.93 19.51 6.22 15.22L9.75 11.69L25.31 27.24L21.78 30.78C19.7 32.86 16.94 34 14 34ZM9.75 14.51L7.63 16.64C4.12 20.15 4.12 25.86 7.63 29.36C9.33 31.06 11.59 32 14 32C16.4 32 18.66 31.06 20.36 29.36L22.48 27.24L9.75 14.51ZM9.05 27.95C6.32 25.22 6.32 20.78 9.05 18.05L10.46 19.46C8.51 21.41 8.51 24.59 10.46 26.54L9.05 27.95ZM20.83 20.83L19.41 19.41C19.79 19.04 20 18.53 20 18C20 17.46 19.79 16.96 19.41 16.59C18.66 15.83 17.34 15.83 16.58 16.59L15.17 15.17C16.68 13.66 19.32 13.66 20.83 15.17C21.58 15.93 22 16.93 22 18C22 19.07 21.58 20.07 20.83 20.83ZM26.96 17.91C26.96 12.95 22.95 8.91 17.99 8.91L17.99 6.91C24.05 6.91 28.96 11.84 28.96 17.91L26.96 17.91ZM33 17.95C32.99 10.26 26.74 4 19.05 4L19.05 2C27.84 2 34.99 9.16 35 17.95L33 17.95Z" />
			</g>
		</g>
	</g>
</svg>