<svg xmlns="http://www.w3.org/2000/svg" viewBox="0 0 24 35" width="24" height="35">
	<style>
		tspan { white-space:pre }
		.shp0 { fill: #ef4035 } 
	</style>
	<g id="Services">
		<g id="1">
			<g id="Group 2">
				<path id="Bulb" class="shp0" d="M16.91 23.45L15.12 22.55L17.66 17.65C20.78 14.53 20.78 9.46 17.66 6.34C14.54 3.22 9.46 3.22 6.34 6.34C3.22 9.46 3.22 14.53 6.34 17.65L6.46 17.77L8.86 22.55L7.07 23.45L4.81 18.95C1.03 15.04 1.07 8.79 4.93 4.93C8.83 1.03 15.17 1.03 19.07 4.93C22.93 8.79 22.97 15.04 19.19 18.95L16.91 23.45ZM8.12 26.96L7.88 24.97L15.88 24L16.12 25.99L8.12 26.96ZM8.12 29.96L7.88 27.97L15.88 27L16.12 28.99L8.12 29.96ZM11.98 34C10.32 34 8.98 32.65 8.98 31L10.98 31C10.98 31.55 11.43 32 11.98 32C12.53 32 12.98 31.55 12.98 31L14.98 31C14.98 32.65 13.63 34 11.98 34ZM8 12L6 12C6 8.69 8.69 6 12 6L12 8C9.79 8 8 9.79 8 12Z" />
			</g>
		</g>
	</g>
</svg>