<svg xmlns="http://www.w3.org/2000/svg" viewBox="0 0 30 35" width="30" height="35">
	<style>
		tspan { white-space:pre }
		.shp0 { fill: #ef4035 } 
	</style>
	<g id="Services">
		<g id="1">
			<g id="Group 1 copy">
				<path id="Chemical Glass" class="shp0" d="M20.96 4L8.97 4L8.97 2L20.96 2L20.96 4ZM25.32 34L4.63 34L4.34 33.71C2.83 32.2 2 30.17 1.99 28C1.99 25.83 2.81 23.8 4.32 22.29L10.97 15.59L10.97 6L12.96 6L12.96 16.41L5.73 23.71C4.61 24.84 3.98 26.36 3.99 28C3.99 29.5 4.52 30.9 5.48 32L24.47 32C26.53 29.64 26.44 25.93 24.22 23.71L16.99 16.41L16.99 6L18.98 6L18.98 15.59L25.63 22.29C28.77 25.44 28.76 30.56 25.61 33.71L25.32 34ZM6.2 29.32C6.06 28.9 5.99 28.45 5.99 27.99C5.98 26.89 6.4 25.87 7.15 25.12L14.14 18.12L15.56 19.53L8.56 26.53C8.19 26.91 7.98 27.43 7.98 27.99C7.99 28.23 8.02 28.47 8.09 28.68L6.2 29.32Z" />
			</g>
		</g>
	</g>
</svg>