<svg xmlns="http://www.w3.org/2000/svg" viewBox="0 0 28 35" width="28" height="35">
	<style>
		tspan { white-space:pre }
		.shp0 { fill: #ef4035 } 
	</style>
	<g id="Services">
		<g id="3">
			<g id="Group 1 copy 5">
				<path id="Shield" class="shp0" d="M2 23.01M26 23.01M3 23.01L1 23.01L1 10.01L3 10.01L3 23.01ZM27 23.01L25 23.01L25 10.01L27 10.01L27 23.01ZM15.25 33.01L12.75 33.01L3.38 28C1.16 26.67 1 25.22 1 23.01L3 23.01C3 25.04 3.13 25.55 4.5 26.34L4.5 26.34L13.25 31.01L14.75 31.01L23.5 26.34C24.87 25.55 25 25.04 25 23.01L27 23.01C27 25.22 26.84 26.67 24.62 28L24.47 28.09L15.25 33.01ZM21 19.01L7 19.01L7 17.01L21 17.01L21 19.01ZM21 23.01L7 23.01L7 21.01L21 21.01L21 23.01ZM14 15.01L7 15.01L7 13.01L14 13.01L14 15.01ZM27 8.01L20 8.01C17.46 8.01 15.23 6.65 14 4.61C12.77 6.65 10.54 8.01 8 8.01L1 8.01L1 6.01L8 6.01C10.76 6.01 13 3.77 13 1.01L15 1.01C15 3.77 17.24 6.01 20 6.01L27 6.01L27 8.01Z" />
			</g>
		</g>
	</g>
</svg>