<svg xmlns="http://www.w3.org/2000/svg" viewBox="0 0 35 36" width="35" height="36">
	<style>
		tspan { white-space:pre }
		.shp0 { fill: #ef4035 } 
	</style>
	<g id="Services">
		<g id="2">
			<g id="Group 1 copy 4">
				<path id="Tools" class="shp0" d="M5.01 8.76C5.01 8.76 5.01 8.76 5.01 8.76C4.21 8.76 3.45 8.44 2.89 7.87L1.48 6.45L5.71 2.17L7.13 3.6C7.69 4.17 8.01 4.93 8.01 5.74C8.01 6.54 7.69 7.3 7.13 7.87C6.56 8.44 5.81 8.76 5.01 8.76ZM4.3 6.45C4.49 6.64 4.74 6.74 5.01 6.74L5.01 6.74C5.27 6.74 5.53 6.64 5.71 6.45C5.9 6.26 6.01 6 6.01 5.73C6.01 5.46 5.9 5.21 5.71 5.02L5.71 5.02L4.3 6.45ZM12.05 14.03L5.73 7.88L7.11 6.43L13.44 12.58L12.05 14.03ZM27.29 29.68L21.56 23.63L22.97 22.21L28.7 28.26L27.29 29.68ZM28 34.01C26.72 34.01 25.45 33.52 24.47 32.54L18.13 25.86L19.54 24.44L25.89 31.11C27.05 32.29 28.95 32.28 30.12 31.11C31.29 29.93 31.29 28.01 30.11 26.82L23.78 20.16L25.19 18.74L31.53 25.4C33.48 27.37 33.48 30.57 31.53 32.53C30.56 33.51 29.28 34.01 28 34.01ZM24.51 17.31L24.51 17.31C22.64 17.31 20.88 16.58 19.56 15.24C18.24 13.91 17.51 12.14 17.51 10.25C17.51 8.37 18.24 6.6 19.56 5.27L21.39 3.42L22.8 4.85L20.97 6.69C20.03 7.64 19.51 8.91 19.51 10.25C19.51 11.6 20.03 12.86 20.97 13.82C21.92 14.77 23.17 15.29 24.51 15.29L24.51 15.29C25.84 15.29 27.09 14.77 28.04 13.82L29.86 11.97L31.28 13.4L29.45 15.24C28.13 16.58 26.37 17.31 24.51 17.31ZM31.28 13.4L29.16 11.26L28.45 11.97C27.7 12.74 26.69 13.16 25.63 13.16L25.62 13.16C24.56 13.15 23.55 12.74 22.8 11.97C22.05 11.21 21.63 10.2 21.63 9.12C21.63 8.05 22.04 7.03 22.8 6.27L23.51 5.56L21.39 3.42L22.8 2L26.33 5.56L24.21 7.7C23.83 8.08 23.63 8.59 23.63 9.12C23.63 9.66 23.83 10.17 24.21 10.55C24.59 10.93 25.09 11.14 25.62 11.14C25.63 11.14 25.63 11.14 25.63 11.14C26.16 11.14 26.66 10.93 27.04 10.55L29.16 8.41L32.69 11.97L31.28 13.4ZM7.04 29.89L5.04 29.89L5.04 27.87L7.04 27.87L7.04 29.89ZM18.13 20.07L14.16 16.12L15.57 14.68L19.53 18.64L18.13 20.07ZM6.01 33.95C4.67 33.95 3.42 33.43 2.48 32.48C1.53 31.53 1.01 30.26 1.01 28.91C1.01 27.57 1.53 26.3 2.48 25.35L2.59 25.25L12.93 17.67L14.11 19.3L3.84 26.83C3.3 27.39 3.01 28.13 3.01 28.91C3.01 29.72 3.32 30.48 3.89 31.05C5 32.18 6.94 32.2 8.07 31.1L15.53 20.75L17.15 21.93L9.54 32.48C8.6 33.43 7.34 33.95 6.01 33.95Z" />
			</g>
		</g>
	</g>
</svg>